<svg xmlns="http://www.w3.org/2000/svg" viewBox="0 0 1440 600" preserveAspectRatio="xMidYMid slice">
  <defs>
    <linearGradient id="bg" x1="0" y1="0" x2="1" y2="1">
      <stop offset="0" stop-color="#0f141f"/>
      <stop offset="1" stop-color="#0a0d14"/>
    </linearGradient>
    <linearGradient id="glow" x1="0" y1="0" x2="1" y2="1">
      <stop offset="0" stop-color="#e7b35b" stop-opacity="0.25"/>
      <stop offset="1" stop-color="#a66b22" stop-opacity="0.05"/>
    </linearGradient>
  </defs>
  <rect width="1440" height="600" fill="url(#bg)"/>
  <g opacity="0.7">
    <circle cx="300" cy="120" r="180" fill="url(#glow)"/>
    <circle cx="1180" cy="80" r="140" fill="url(#glow)"/>
    <circle cx="860" cy="420" r="220" fill="url(#glow)"/>
  </g>
  <g fill="none" stroke="#1c2533" opacity="0.7">
    <path d="M0 520 C 240 460, 480 580, 720 520 S 1200 480, 1440 520" />
    <path d="M0 560 C 300 500, 600 600, 900 560 S 1200 520, 1440 560" />
  </g>
  <g transform="translate(220,300)">
    <rect x="0" y="0" width="280" height="160" rx="12" fill="#161d2a" stroke="#223047"/>
    <rect x="24" y="34" width="232" height="12" rx="6" fill="#2d3a52"/>
    <rect x="24" y="60" width="184" height="12" rx="6" fill="#2d3a52"/>
    <rect x="24" y="86" width="208" height="12" rx="6" fill="#2d3a52"/>
  </g>
  <g transform="translate(560,260)">
    <rect x="0" y="0" width="320" height="200" rx="12" fill="#161d2a" stroke="#223047"/>
    <circle cx="80" cy="90" r="42" fill="#223047"/>
    <rect x="144" y="64" width="152" height="20" rx="10" fill="#2d3a52"/>
    <rect x="144" y="98" width="122" height="14" rx="7" fill="#2d3a52"/>
  </g>
  <g transform="translate(980,300)">
    <rect x="0" y="0" width="240" height="160" rx="12" fill="#161d2a" stroke="#223047"/>
    <rect x="24" y="34" width="192" height="12" rx="6" fill="#2d3a52"/>
    <rect x="24" y="60" width="156" height="12" rx="6" fill="#2d3a52"/>
    <rect x="24" y="86" width="176" height="12" rx="6" fill="#2d3a52"/>
  </g>
</svg>
